PathFileType	4	(X/Y/Z)	E:/New_biomech_experiments/MICROGRAVITY MOCAP/Session 2024-06-22/Neeraj_StickPose_22_06_24.trc	
DataRate	CameraRate	NumFrames	NumMarkers	Units	OrigDataRate	OrigDataStartFrame	OrigNumFrames	
120.00	120.00	10	19	m	120.00	1178	1570	
Frame#	Time	 RSHO			 RBAK			 LBHD			 RUPA			 PRSHO			 RWRA			 RELB			 RFRM			 CLAV			 STRN			 ARSHO			 RFHD			 LFHD			 DIA			 C7			 RBHD			 MRELB			 RWRB			 T10			
		X1	Y1	Z1	X2	Y2	Z2	X3	Y3	Z3	X4	Y4	Z4	X5	Y5	Z5	X6	Y6	Z6	X7	Y7	Z7	X8	Y8	Z8	X9	Y9	Z9	X10	Y10	Z10	X11	Y11	Z11	X12	Y12	Z12	X13	Y13	Z13	X14	Y14	Z14	X15	Y15	Z15	X16	Y16	Z16	X17	Y17	Z17	X18	Y18	Z18	X19	Y19	Z19	

1178	9.808	-0.00075	1.51889	0.18710	-0.11049	1.36541	0.04646	-0.03151	1.71739	-0.08227	0.01230	1.30487	0.23389	-0.08815	1.46670	0.13093	0.04779	0.88538	0.21356	0.00563	1.16295	0.24258	0.01238	1.02773	0.25467	0.11308	1.48451	-0.02837	0.15262	1.32143	-0.02188	0.09480	1.46022	0.13864	0.07495	1.81367	0.05774	0.08675	1.82749	-0.04451	0.08862	1.16516	0.13674	-0.07924	1.53136	-0.02111	-0.05109	1.71747	0.02085	-0.05644	1.14612	0.13941	-0.04697	0.86587	0.23970	-0.10315	1.33712	-0.02421 
1179	9.817	-0.00067	1.51887	0.18713	-0.11042	1.36541	0.04648	-0.03147	1.71742	-0.08224	0.01235	1.30486	0.23391	-0.08808	1.46668	0.13095	0.04780	0.88536	0.21359	0.00567	1.16294	0.24261	0.01240	1.02772	0.25470	0.11314	1.48451	-0.02836	0.15269	1.32143	-0.02187	0.09486	1.46021	0.13865	0.07501	1.81368	0.05774	0.08679	1.82750	-0.04452	0.08872	1.16517	0.13676	-0.07917	1.53131	-0.02111	-0.05104	1.71746	0.02087	-0.05640	1.14612	0.13943	-0.04697	0.86586	0.23973	-0.10284	1.33691	-0.02419 
1180	9.825	-0.00060	1.51885	0.18716	-0.11034	1.36541	0.04649	-0.03142	1.71746	-0.08222	0.01240	1.30484	0.23392	-0.08801	1.46667	0.13098	0.04782	0.88534	0.21362	0.00571	1.16292	0.24263	0.01244	1.02770	0.25473	0.11319	1.48451	-0.02835	0.15275	1.32143	-0.02186	0.09492	1.46019	0.13867	0.07506	1.81367	0.05775	0.08683	1.82751	-0.04452	0.08881	1.16517	0.13678	-0.07910	1.53127	-0.02110	-0.05099	1.71745	0.02089	-0.05637	1.14612	0.13946	-0.04695	0.86585	0.23976	-0.10261	1.33676	-0.02417 
1181	9.833	-0.00052	1.51883	0.18718	-0.11027	1.36540	0.04651	-0.03138	1.71748	-0.08219	0.01245	1.30482	0.23394	-0.08794	1.46666	0.13100	0.04784	0.88532	0.21364	0.00576	1.16291	0.24266	0.01247	1.02769	0.25475	0.11325	1.48450	-0.02833	0.15281	1.32143	-0.02186	0.09499	1.46017	0.13868	0.07510	1.81367	0.05776	0.08686	1.82751	-0.04451	0.08890	1.16517	0.13679	-0.07904	1.53124	-0.02108	-0.05095	1.71743	0.02090	-0.05633	1.14611	0.13948	-0.04694	0.86584	0.23979	-0.10244	1.33668	-0.02414 
1182	9.842	-0.00045	1.51881	0.18721	-0.11020	1.36540	0.04653	-0.03134	1.71752	-0.08216	0.01250	1.30481	0.23395	-0.08787	1.46664	0.13103	0.04787	0.88530	0.21366	0.00580	1.16289	0.24267	0.01251	1.02767	0.25477	0.11330	1.48449	-0.02832	0.15287	1.32143	-0.02185	0.09505	1.46015	0.13870	0.07514	1.81367	0.05777	0.08688	1.82750	-0.04450	0.08898	1.16516	0.13681	-0.07898	1.53122	-0.02106	-0.05091	1.71741	0.02092	-0.05630	1.14610	0.13950	-0.04691	0.86583	0.23981	-0.10233	1.33664	-0.02411 
1183	9.850	-0.00037	1.51879	0.18724	-0.11013	1.36540	0.04656	-0.03129	1.71758	-0.08214	0.01255	1.30479	0.23396	-0.08780	1.46663	0.13106	0.04791	0.88528	0.21367	0.00585	1.16287	0.24269	0.01255	1.02765	0.25479	0.11335	1.48448	-0.02831	0.15293	1.32143	-0.02185	0.09512	1.46013	0.13871	0.07516	1.81367	0.05778	0.08689	1.82750	-0.04449	0.08906	1.16516	0.13681	-0.07891	1.53121	-0.02103	-0.05087	1.71740	0.02094	-0.05626	1.14609	0.13952	-0.04688	0.86582	0.23982	-0.10227	1.33664	-0.02408 
1184	9.858	-0.00028	1.51877	0.18727	-0.11007	1.36539	0.04658	-0.03125	1.71767	-0.08211	0.01260	1.30476	0.23397	-0.08773	1.46661	0.13109	0.04795	0.88526	0.21367	0.00589	1.16286	0.24270	0.01260	1.02763	0.25479	0.11340	1.48446	-0.02831	0.15299	1.32143	-0.02185	0.09518	1.46011	0.13873	0.07519	1.81367	0.05780	0.08691	1.82751	-0.04446	0.08915	1.16515	0.13682	-0.07885	1.53120	-0.02100	-0.05085	1.71738	0.02097	-0.05622	1.14608	0.13953	-0.04683	0.86581	0.23982	-0.10225	1.33668	-0.02405 
1185	9.867	-0.00021	1.51875	0.18730	-0.11000	1.36539	0.04660	-0.03121	1.71775	-0.08209	0.01266	1.30474	0.23398	-0.08766	1.46660	0.13112	0.04800	0.88524	0.21367	0.00594	1.16284	0.24270	0.01265	1.02761	0.25480	0.11345	1.48445	-0.02829	0.15305	1.32143	-0.02185	0.09524	1.46010	0.13874	0.07521	1.81367	0.05783	0.08694	1.82753	-0.04442	0.08923	1.16515	0.13683	-0.07879	1.53119	-0.02097	-0.05082	1.71737	0.02099	-0.05618	1.14607	0.13954	-0.04679	0.86579	0.23982	-0.10229	1.33676	-0.02402 
1186	9.875	-0.00013	1.51873	0.18732	-0.10994	1.36538	0.04662	-0.03117	1.71778	-0.08206	0.01271	1.30472	0.23399	-0.08760	1.46659	0.13115	0.04805	0.88522	0.21366	0.00599	1.16282	0.24270	0.01270	1.02760	0.25480	0.11351	1.48445	-0.02827	0.15311	1.32143	-0.02185	0.09530	1.46008	0.13875	0.07523	1.81366	0.05786	0.08697	1.82755	-0.04438	0.08931	1.16515	0.13683	-0.07873	1.53118	-0.02094	-0.05080	1.71735	0.02101	-0.05614	1.14607	0.13955	-0.04673	0.86577	0.23982	-0.10240	1.33691	-0.02398 
1187	9.883	-0.00006	1.51871	0.18734	-0.10988	1.36537	0.04665	-0.03114	1.71780	-0.08202	0.01277	1.30470	0.23400	-0.08753	1.46657	0.13118	0.04811	0.88519	0.21365	0.00605	1.16281	0.24269	0.01276	1.02758	0.25479	0.11356	1.48445	-0.02825	0.15317	1.32144	-0.02184	0.09536	1.46007	0.13877	0.07525	1.81365	0.05789	0.08699	1.82757	-0.04434	0.08939	1.16514	0.13684	-0.07868	1.53117	-0.02091	-0.05078	1.71734	0.02104	-0.05609	1.14606	0.13956	-0.04667	0.86575	0.23980	-0.10260	1.33712	-0.02393 
